Coordinates
version=1
nRows=17
nColumns=34
inDegrees=yes

Units are S.I. units (second, meters, Newtons, ...)
If the header above contains a line with 'inDegrees', this indicates whether rotational values are in degrees (yes) or radians (no).

endheader
time	pelvis_tilt	pelvis_list	pelvis_rotation	pelvis_tx	pelvis_ty	pelvis_tz	hip_flexion_r	hip_adduction_r	hip_rotation_r	knee_angle_r	ankle_angle_r	subtalar_angle_r	mtp_angle_r	hip_flexion_l	hip_adduction_l	hip_rotation_l	knee_angle_l	ankle_angle_l	subtalar_angle_l	mtp_angle_l	lumbar_extension	lumbar_bending	lumbar_rotation	arm_flex_r	arm_add_r	arm_rot_r	elbow_flex_r	pro_sup_r	arm_flex_l	arm_add_l	arm_rot_l	elbow_flex_l	pro_sup_l
      0.00000000	     -2.77743721	      4.67575106	     -0.73210771	     -0.11830565	      1.30326225	     -0.01808972	      4.82473303	     -1.49080169	     -0.11741983	      5.55030167	     12.77283772	     -4.15246950	      0.00000000	     10.26112746	      0.29742915	      1.02246368	     15.26672618	      8.60705840	     -8.34278755	      0.00000000	     -5.51748205	     -1.15605756	     -3.33730829	     -6.74890429	    -11.73979591	      8.30559234	    129.76337972	    104.76855719	     -9.41622168	     -8.55564187	      1.05346120	    131.15704227	    109.38749118
      0.01666670	     -4.87786047	      4.16921214	     -1.48220739	     -0.11818306	      1.29880507	     -0.01825535	      7.11767954	     -0.61477418	      2.46115723	      5.21072126	     14.35204032	     -3.84000125	      0.00000000	     12.20727194	     -0.25993294	      1.39910703	     14.37710996	      8.14590838	     -7.48937022	      0.00000000	     -1.94978478	     -0.07970462	     -2.16716004	     -8.90148806	    -12.19780440	      5.69452855	    130.84763218	    104.28956236	    -11.07740588	     -8.32494908	      1.52478310	    131.55465662	    108.60424681
      0.03333330	     -6.36869642	      4.03970499	     -2.21751726	     -0.11833491	      1.29581676	     -0.01793101	      8.54082639	     -0.18568620	      3.08304920	      4.83506510	     14.00165486	     -5.15831119	      0.00000000	     14.07748258	     -0.62866010	      1.39196767	     14.86011929	      7.47462484	     -8.32359327	      0.00000000	     -0.29732449	     -0.03739621	     -1.22579470	    -10.33161326	    -13.10155238	      5.89248810	    131.73954723	    104.14874270	    -10.84486760	     -8.42754640	      2.18732577	    131.86592477	    107.95627226
      0.05000000	     -6.67027168	      4.05240333	     -2.21289597	     -0.12027370	      1.30003785	     -0.01762591	      8.70177765	      0.03158570	      3.65329660	      4.36208966	     13.38065161	     -4.76202482	      0.00000000	     14.07789581	     -0.64184234	      1.61320928	     14.00056596	      7.22464332	     -8.46788197	      0.00000000	     -0.23143121	     -0.27904303	     -1.00768941	    -11.21203914	    -13.30072457	      6.33504747	    131.17140348	    104.11830545	    -10.28023634	     -8.40281157	      2.07603440	    131.97574071	    107.78818140
      0.06666670	     -7.40590045	      4.20581454	     -2.44270870	     -0.11957610	      1.29558848	     -0.01880802	      9.64584721	      0.00835833	      4.18444099	      4.60195115	     12.89765342	     -5.48800918	      0.00000000	     14.62572813	     -0.48252197	      1.62960431	     13.58042297	      6.94597122	     -9.27502171	      0.00000000	      0.37221749	     -0.46306956	     -0.35733750	    -11.73598786	    -13.67952154	      7.41152758	    131.20411031	    103.81071393	     -9.35288257	     -8.77267826	      3.02411103	    132.30556753	    107.14010993
      0.08333330	     -7.73548904	      4.38169338	     -2.33128330	     -0.11809127	      1.29554515	     -0.01948640	      9.91300882	     -0.17843847	      4.35936122	      4.53401184	     12.40153221	     -5.44049433	      0.00000000	     14.73509753	     -0.24311499	      1.62892154	     13.15876349	      6.99513076	     -9.37958255	      0.00000000	      0.55464416	     -0.90612913	     -0.38403377	    -12.19218996	    -13.65777588	      7.68780452	    131.18412390	    103.69511955	     -8.73655373	     -9.01606540	      3.06241532	    132.66463704	    106.92748555
      0.10000000	     -7.95000822	      4.37529634	     -2.23145582	     -0.11676154	      1.29733220	     -0.02044535	     10.08754809	     -0.27805386	      4.36033413	      4.43498478	     12.36392247	     -5.47235333	      0.00000000	     14.74344260	     -0.18907057	      1.55831405	     12.89548976	      7.03568844	     -9.43254110	      0.00000000	      0.43222346	     -0.99235581	     -0.36674757	    -12.21768665	    -13.69568228	      7.71847330	    131.13654714	    103.67712869	     -8.70018585	     -9.04492815	      3.09803889	    132.64688708	    106.89859023
      0.11666670	     -8.48927810	      4.75549853	     -2.35733480	     -0.11626134	      1.29759838	     -0.02050137	     10.62064615	     -0.71048968	      4.72020288	      4.16297420	     12.02481323	     -5.72902372	      0.00000000	     14.69493578	      0.20713692	      1.54002465	     11.89008358	      6.68863376	     -9.39696555	      0.00000000	      1.05863293	     -1.82077422	     -0.00419998	    -12.52449675	    -13.80294742	      8.25196872	    130.37181405	    103.46998848	     -8.80625087	     -9.36173191	      3.63517118	    132.28440909	    106.55282721
      0.13333330	     -8.98959877	      4.75518443	     -2.32986239	     -0.11594660	      1.29681415	     -0.02225580	     11.06764976	     -0.74012356	      5.40769403	      4.06123371	     11.59307786	     -6.33336679	      0.00000000	     14.87995774	      0.27464653	      1.54357166	     11.28069958	      6.68127513	     -9.43913745	      0.00000000	      1.67508687	     -1.84955331	      0.06994962	    -12.33999705	    -13.88099031	      8.77870332	    128.55201925	    102.99406555	     -8.67222253	     -9.35243809	      4.46725392	    130.66028632	    105.78153752
      0.15000000	     -9.22701741	      4.84520322	     -2.23953976	     -0.11396611	      1.29088442	     -0.02392293	     11.33347505	     -0.93410642	      5.56341980	      4.01125362	     11.65140490	     -6.53670573	      0.00000000	     14.71275193	      0.40527007	      1.69836102	     10.48421310	      6.82941058	     -9.34678696	      0.00000000	      1.69790116	     -2.17625225	      0.16044054	    -12.27608984	    -14.09756766	      8.95972398	    127.86433592	    102.82724130	     -8.65290767	     -9.10863927	      4.70688336	    130.00340837	    105.49713193
      0.16666670	     -9.59004087	      4.84503696	     -2.16981661	     -0.11620678	      1.28586063	     -0.02605080	     11.62193366	     -1.00560988	      5.87693782	      3.72103868	     11.70411219	     -7.09574710	      0.00000000	     14.90846214	      0.46359011	      1.53862851	     10.00274682	      7.01991379	     -9.29719015	      0.00000000	      2.22099580	     -2.38188018	      0.30673725	    -11.61143887	    -14.38081455	      9.57557196	    125.26172001	    102.30287563	     -8.22525396	     -9.01060251	      5.38235875	    127.64508324	    104.61008686
      0.18333330	    -10.47769060	      4.78367916	     -1.99835711	     -0.11373195	      1.28222399	     -0.02676615	     12.52356555	     -0.91440101	      6.86960119	      3.86363987	     11.51648382	     -8.43799712	      0.00000000	     15.66875216	      0.37999248	      1.40625360	      9.57358091	      7.72376695	     -8.85232866	      0.00000000	      3.39950475	     -2.46477834	      0.02770458	    -11.02891606	    -14.92127184	     10.98177916	    122.92458712	     97.38304323	     -8.67519748	     -8.63790298	      5.92696441	    125.72696876	     96.59524847
      0.20000000	    -10.38505858	      4.89778422	     -1.78330195	     -0.11431553	      1.28007368	     -0.02823227	     12.26971923	     -1.18433568	      6.55395262	      3.66237670	     11.69273166	     -8.37707215	      0.00000000	     15.11509441	      0.63464762	      1.56768526	      8.84100745	      7.63174654	     -8.83128544	      0.00000000	      3.19824118	     -2.85356002	     -0.10259529	    -10.96073989	    -14.81008314	     10.95066886	    120.02057545	     97.16068132	     -8.04010144	     -8.31912011	      6.26452849	    123.32906701	     96.22178285
      0.21666670	    -10.61615595	      4.87821530	     -1.73230827	     -0.11356761	      1.27250780	     -0.02927449	     12.48926141	     -1.23677365	      6.58906733	      3.63098162	     11.91737798	     -8.47777803	      0.00000000	     15.01600098	      0.69826389	      1.56407734	      8.45152399	      8.03280254	     -9.01904883	      0.00000000	      3.37988717	     -3.10207038	     -0.07248038	    -10.81582038	    -14.97599253	     10.92462352	    116.54819749	     96.85108810	     -7.43165870	     -8.14719558	      6.76045329	    120.53326654	     95.75435834
      0.23333330	    -11.30816755	      5.00388091	     -1.61777800	     -0.11060881	      1.27543257	     -0.03045312	     13.21467597	     -1.46164482	      6.62533827	      3.70025886	     12.02233326	     -8.68636288	      0.00000000	     15.32429743	      0.86716112	      1.50684802	      7.86625599	      7.93572293	     -8.92960561	      0.00000000	      4.52086330	     -3.43405065	      0.26186922	    -11.84273439	    -14.54708858	     10.34731084	    112.38006917	     95.34408017	     -6.62602619	     -8.22544635	      7.86835535	    116.05219766	     93.52231554
      0.25000000	    -11.32668904	      4.89628674	     -1.53215014	     -0.11144214	      1.26471984	     -0.03097570	     13.14991821	     -1.37675689	      6.71178671	      3.75952830	     12.27214860	     -9.03573375	      0.00000000	     15.00509919	      0.83632102	      1.59182397	      7.36159713	      8.34633695	     -8.86028903	      0.00000000	      4.52424010	     -3.61790056	     -0.22446489	    -12.26819488	    -14.15746305	     10.15581168	    108.44894807	     95.03633259	     -5.58166116	     -8.69737612	      8.54794290	    112.86897738	     93.03409352
      0.26666670	    -11.52287949	      4.89002276	     -1.35627005	     -0.10942087	      1.27476738	     -0.03045485	     13.21693292	     -1.38622008	      6.90325725	      3.84336568	     12.50230716	     -9.21384283	      0.00000000	     14.77726144	      0.85538947	      1.83530515	      6.65913253	      8.19967452	     -8.61497732	      0.00000000	      4.91376443	     -4.01800315	     -0.59610659	    -13.48794163	    -13.40862285	      9.98819603	    104.58506127	     94.82517215	     -5.52893199	     -8.66615957	      8.83341578	    108.57330753	     92.67703013
